<svg id="Layer_1" data-name="Layer 1" xmlns="http://www.w3.org/2000/svg" xmlns:xlink="http://www.w3.org/1999/xlink" viewBox="0 0 596.78 343.66"><defs><style>.cls-1{fill:url(#linear-gradient);}.cls-2{fill:url(#linear-gradient-2);}.cls-3{fill:url(#linear-gradient-3);}.cls-4{fill:#5d2691;}.cls-5{fill:#c9a110;}.cls-6{fill:#151441;}</style><linearGradient id="linear-gradient" x1="104.65" y1="434.36" x2="108.94" y2="131.11" gradientUnits="userSpaceOnUse"><stop offset="0" stop-color="#151441"/><stop offset="0.19" stop-color="#1b1547"/><stop offset="0.46" stop-color="#2a1959"/><stop offset="0.76" stop-color="#442076"/><stop offset="1" stop-color="#5d2691"/></linearGradient><linearGradient id="linear-gradient-2" x1="322.78" y1="437.44" x2="327.07" y2="134.19" xlink:href="#linear-gradient"/><linearGradient id="linear-gradient-3" x1="278.76" y1="436.82" x2="283.06" y2="133.57" xlink:href="#linear-gradient"/></defs><path class="cls-1" d="M198,367.84H156S54.41,182.28,51.48,177.23V367.84H16.65V123.32H64.49Z" transform="translate(113.43 -78.17)"/><path class="cls-2" d="M343.66,367.84H307.33V123.68h36.33Z" transform="translate(113.43 -78.17)"/><path class="cls-3" d="M465.35,118.83c-2.47-2.67-8.24-6.67-11.53-9.13-10.83-8.1-20-12.59-32.67-17.22A200.6,200.6,0,0,0,399,85.32a249,249,0,0,0-48.9-6.83c-33.19-1.41-66.58,1.79-98.39,11.22-20.83,6.18-41.39,14.48-58.5,27.88S162.69,150,159.46,171.51c-3.29,21.87,4.17,44.14,15.27,63.28s25.76,35.91,38.65,53.89c8.17,11.38,17.28,31,19.74,44.82,5.19,29-18.32,50.86-47.24,56.67s-60.27-11.26-70.61-38.88l-35.72,0c4.45,25.7,22.22,48.35,45.38,60.31s50.45,12.16,76,7.22c38.61-7.46,62.24-38.42,64.66-73.38,1.5-21.65-6.82-45.87-18.11-64.41S222,245.93,209.79,228c-11.27-16.65-21-36.54-16.75-56.18,2.85-13,11.7-24.13,22.46-32s23.36-15.71,36-19.82a271.42,271.42,0,0,1,101.66-12.79c34.35,2.26,70,14.39,97.89,34.54.07-.08,32.28,1.23,32.28,1.23C480,133.2,471.6,125.56,465.35,118.83Z" transform="translate(113.43 -78.17)"/><rect class="cls-4" y="36.08" width="46.7" height="18.88"/><rect class="cls-5" y="66.79" width="46.7" height="18.88"/><rect class="cls-6" y="97.5" width="46.7" height="18.88"/></svg>